<svg id="Layer_3" enable-background="new 0 0 64 64" height="512" viewBox="0 0 64 64" width="512" xmlns="http://www.w3.org/2000/svg"><g><path d="m14 40c0 2.209 1.791 4 4 4v-1c0-3.866-3.134-7-7-7-3.866 0-7 3.134-7 7v1h6c2.209 0 4-1.791 4-4z" fill="#f4b2b0"/><path d="m20 43h-1c0-3.008-1.67-5.63-4.13-6.996.085-.327.13-.664.13-1.004 0-2.206-1.794-4-4-4s-4 1.794-4 4c0 .34.045.677.13 1.004-2.46 1.366-4.13 3.988-4.13 6.996v.184c-1.161.414-2 1.514-2 2.816 0 1.654 1.346 3 3 3h1.35c.285.803.734 1.527 1.31 2.132-3.22.627-5.66 3.467-5.66 6.868v4c0 .552.448 1 1 1h18c.552 0 1-.448 1-1v-4c0-3.401-2.44-6.241-5.66-6.868.576-.605 1.025-1.329 1.31-2.132h3.35c.552 0 1-.448 1-1v-4c0-.552-.448-1-1-1zm-11-8c0-1.103.897-2 2-2s2 .897 2 2c0 .086-.022.17-.033.255-.631-.161-1.287-.255-1.967-.255s-1.336.094-1.967.255c-.011-.085-.033-.169-.033-.255zm2 2c3.251 0 5.906 2.599 5.998 5.828-1.163-.413-1.998-1.525-1.998-2.828 0-.552-.448-1-1-1s-1 .448-1 1c0 1.654-1.346 3-3 3h-5c0-3.309 2.691-6 6-6zm-7 10c-.551 0-1-.449-1-1s.449-1 1-1h1v2zm10 6-1.108 1.478-1.185-1.185c-.195-.195-.451-.293-.707-.293s-.512.098-.707.293l-1.185 1.185-1.108-1.478h3zm5 5v3h-2v-4h-2v4h-8v-4h-2v4h-2v-3c0-1.993 1.18-3.703 2.871-4.506l2.329 3.106c.174.232.44.377.729.397.288.018.573-.085.778-.291l1.293-1.292 1.293 1.293c.188.189.443.293.707.293.023 0 .047-.001.071-.002.289-.021.555-.166.729-.397l2.329-3.106c1.691.802 2.871 2.512 2.871 4.505zm-8-7c-2.206 0-4-1.794-4-4v-2h3c1.634 0 3.087-.788 4-2.003.283.377.624.707 1 .991v3.012h-2v2h1.444c-.694 1.19-1.97 2-3.444 2zm8-4h-2v-2h2zm41-16h-15v-17c0-.276-.112-.526-.293-.707l-12-12c-.181-.181-.431-.293-.707-.293h-30c-.552 0-1 .448-1 1v36h2v-35h28v11c0 .552.448 1 1 1h11v16h-17c-1.654 0-3 1.346-3 3v26c0 1.654 1.346 3 3 3h34c1.654 0 3-1.346 3-3v-26c0-1.654-1.346-3-3-3zm-27-26.586 8.586 8.586h-8.586zm28 55.586c0 .551-.449 1-1 1h-34c-.551 0-1-.449-1-1v-26c0-.551.449-1 1-1h34c.551 0 1 .449 1 1zm-18-25c-.42 0-.796.263-.94.658l-8 22 1.88.684 2.306-6.342h9.508l2.306 6.342 1.88-.684-8-22c-.144-.395-.52-.658-.94-.658zm-4.027 15 4.027-11.074 4.027 11.074zm-15.622-23.937-.702 1.873c-2.372-.89-4.587-2.143-6.597-3.665-2.032 1.508-4.293 2.734-6.739 3.607l-2.977 1.063-.673-1.884 2.977-1.063c2.096-.749 4.05-1.772 5.82-3.029-1.864-1.655-3.51-3.557-4.837-5.68l-.471-.755 1.696-1.06.472.755c1.291 2.065 2.904 3.906 4.74 5.488 2.77-2.347 4.991-5.312 6.464-8.713h-17.524v-2h11v-2h2v2h11v2h-4.32c-1.535 3.89-3.949 7.295-7.02 9.98 1.749 1.27 3.658 2.321 5.691 3.083zm33.649 21.937h2v10c0 .552-.448 1-1 1h-3v-2h2zm-29-13h3v2h-2v9h-2v-10c0-.552.448-1 1-1z" fill="#b3404a"/></g></svg>