<?xml version="1.0" encoding="UTF-8" standalone="no"?>
<!DOCTYPE svg PUBLIC "-//W3C//DTD SVG 1.1//EN" "http://www.w3.org/Graphics/SVG/1.1/DTD/svg11.dtd">
<svg version="1.1" xmlns="http://www.w3.org/2000/svg" xmlns:xlink="http://www.w3.org/1999/xlink" preserveAspectRatio="xMidYMid meet" viewBox="0 0 640 640" width="640" height="640"><defs><path d="M623.53 110.52C615.41 89.02 602.93 69.76 586.58 53.76C570.6 37.51 551.25 24.88 530.04 16.88C509.7 9 486.48 3.5 452.53 2C418.33 0.38 407.47 0 320.72 0C233.98 0 223.12 0.38 189.04 1.88C155.09 3.37 131.75 8.88 111.54 16.75C90.06 24.88 70.84 37.38 54.87 53.76C38.64 69.76 26.04 89.14 18.05 110.4C10.18 130.78 4.69 154.03 3.2 188.04C1.57 222.3 1.2 233.17 1.2 320.06C1.2 406.96 1.57 417.83 3.07 451.96C4.57 485.97 10.06 509.35 17.92 529.61C26.04 551.11 38.64 570.36 54.87 586.37C70.84 602.62 90.19 615.25 111.41 623.25C131.75 631.13 154.97 636.63 188.92 638.12C222.99 639.63 233.85 640 320.6 640C407.35 640 418.2 639.63 452.28 638.12C486.23 636.63 509.57 631.13 529.79 623.25C572.73 606.62 606.68 572.61 623.28 529.61C631.14 509.23 636.63 485.97 638.13 451.96C639.62 417.83 640 406.96 640 320.06C640 233.17 639.87 222.3 638.38 188.16C636.88 154.16 631.39 130.78 623.53 110.52ZM569.85 508.85C559.12 536.73 537.03 558.86 509.19 569.61C497.96 573.99 480.99 579.24 449.91 580.61C416.21 582.12 406.1 582.49 320.85 582.49C235.6 582.49 225.37 582.12 191.79 580.61C160.58 579.24 143.73 573.99 132.5 569.61C118.65 564.49 106.04 556.36 95.81 545.73C85.2 535.36 77.08 522.85 71.97 508.98C67.6 497.73 62.36 480.72 60.99 449.59C59.48 415.83 59.11 405.71 59.11 320.31C59.11 234.92 59.48 224.67 60.99 191.04C62.36 159.78 67.6 142.9 71.97 131.65C77.08 117.77 85.2 105.15 95.93 94.89C106.29 84.26 118.77 76.14 132.63 71.02C143.86 66.64 160.84 61.39 191.91 60.01C225.61 58.51 235.73 58.14 320.97 58.14C406.35 58.14 416.45 58.51 450.03 60.01C481.24 61.39 498.09 66.64 509.32 71.02C523.17 76.14 535.78 84.26 546.01 94.89C556.62 105.27 564.74 117.77 569.85 131.65C574.22 142.9 579.46 159.9 580.84 191.04C582.34 224.8 582.71 234.92 582.71 320.31C582.71 405.71 582.34 415.71 580.84 449.46C579.46 480.72 574.22 497.6 569.85 508.85Z" id="iCaLtaIUM"></path><path d="M156.59 320.06C156.59 410.83 230.11 484.47 320.72 484.47C411.34 484.47 484.85 410.83 484.85 320.06C484.85 229.29 411.34 155.66 320.72 155.66C230.11 155.66 156.59 229.29 156.59 320.06ZM214.25 320.06C214.25 261.17 261.94 213.42 320.72 213.42C379.51 213.42 427.19 261.17 427.19 320.06C427.19 378.95 379.51 426.71 320.72 426.71C261.94 426.71 214.25 378.95 214.25 320.06Z" id="bHog28YtG"></path><path d="M491.34 187.54C470.18 187.54 453.03 170.35 453.03 149.16C453.03 127.96 470.18 110.77 491.34 110.77C512.51 110.77 529.67 127.96 529.67 149.16C529.67 170.35 512.51 187.54 491.34 187.54Z" id="a1OgzCfeCD"></path></defs><g><g><g><use xlink:href="#iCaLtaIUM" opacity="1" fill="#ffffff" fill-opacity="1"></use><g><use xlink:href="#iCaLtaIUM" opacity="1" fill-opacity="0" stroke="#000000" stroke-width="1" stroke-opacity="0"></use></g></g><g><use xlink:href="#bHog28YtG" opacity="1" fill="#ffffff" fill-opacity="1"></use><g><use xlink:href="#bHog28YtG" opacity="1" fill-opacity="0" stroke="#000000" stroke-width="1" stroke-opacity="0"></use></g></g><g><use xlink:href="#a1OgzCfeCD" opacity="1" fill="#ffffff" fill-opacity="1"></use><g><use xlink:href="#a1OgzCfeCD" opacity="1" fill-opacity="0" stroke="#000000" stroke-width="1" stroke-opacity="0"></use></g></g></g></g></svg>