<?xml version="1.0" encoding="UTF-8" standalone="no"?>
<!DOCTYPE svg PUBLIC "-//W3C//DTD SVG 1.1//EN" "http://www.w3.org/Graphics/SVG/1.1/DTD/svg11.dtd">
<svg version="1.1" xmlns="http://www.w3.org/2000/svg" xmlns:xlink="http://www.w3.org/1999/xlink" preserveAspectRatio="xMidYMid meet" viewBox="0 0 640 640" width="640" height="640"><defs><path d="M309.7 257.43L261.7 257.43L261.7 241.43L309.7 241.43L309.7 257.43ZM517.7 316.17C517.7 326.86 513.53 336.91 505.98 344.46C505.7 344.74 504.27 346.17 501.7 348.74C501.7 432.53 501.7 479.08 501.7 488.39C501.7 519.84 476.12 545.43 444.67 545.43C427.69 545.43 411.73 537.95 400.85 524.91C400.1 524.02 396.39 519.56 389.7 511.53L389.7 529.43C368.61 529.43 356.89 529.43 354.54 529.43C344.45 529.43 334.61 531.24 325.17 534.63C322.68 549.79 309.57 561.43 293.7 561.43C286.5 561.43 228.9 561.43 221.7 561.43C173.18 561.43 133.7 521.95 133.7 473.43C133.7 469.54 133.7 438.46 133.7 434.57C133.7 367.95 182.14 310.51 247.18 298.54C247.5 297.28 250.03 287.18 250.34 285.91C231.41 278.91 217.3 261.97 214.34 241.43C214.28 241.43 213.77 241.43 213.7 241.43C196.05 241.43 181.7 227.08 181.7 209.43C181.7 202.91 183.69 196.85 187.05 191.79C186.79 190.76 184.75 182.6 184.49 181.58C182.64 174.16 181.69 166.54 181.69 158.91C181.7 107.35 223.63 65.43 275.18 65.43C277.29 65.43 294.13 65.43 296.23 65.43C347.77 65.43 389.7 107.35 389.7 158.91C389.7 166.54 388.77 174.16 386.9 181.58C386.65 182.6 384.61 190.76 384.35 191.78C387.72 196.84 389.7 202.9 389.7 209.43C389.7 227.07 375.35 241.43 357.7 241.43C357.64 241.43 357.13 241.43 357.06 241.43C354.1 261.96 340 278.89 321.06 285.91C321.38 287.18 323.94 297.4 324.26 298.68C372.01 309.03 411.21 340.84 431.05 384.65C431.46 382.22 433.49 370.06 437.13 348.18C434.91 345.95 433.67 344.71 433.42 344.47C425.87 336.91 421.7 326.86 421.7 316.17C421.7 314.3 421.7 299.3 421.7 297.43C421.7 287.01 428.41 278.21 437.7 274.9C437.7 272.35 437.7 251.97 437.7 249.43C437.7 236.19 448.47 225.43 461.7 225.43C474.93 225.43 485.7 236.19 485.7 249.43C485.7 251.03 485.7 259.03 485.7 273.43C490.5 273.43 493.17 273.43 493.7 273.43C506.93 273.43 517.7 284.19 517.7 297.43C517.7 301.17 517.7 314.3 517.7 316.17ZM453.7 274.9C456.69 275.96 459.39 277.58 461.7 279.67C464.01 277.59 466.71 275.96 469.7 274.9C469.7 272.35 469.7 251.97 469.7 249.43C469.7 245.01 466.12 241.43 461.7 241.43C457.29 241.43 453.7 245.01 453.7 249.43C453.7 254.52 453.7 272.35 453.7 274.9ZM293.7 497.43C293.7 456.9 293.7 434.39 293.7 429.89C280.14 421.75 264.74 417.43 248.86 417.43C247.59 417.43 241.2 417.43 229.7 417.43L229.7 497.43L248.76 497.43C249.77 495.4 250.33 494.27 250.45 494.05C254.34 486.26 262.17 481.43 270.87 481.43C281.08 481.43 289.75 488.16 292.66 497.43C292.8 497.43 293.15 497.43 293.7 497.43ZM252.53 313.79C248.13 314.5 243.83 315.48 239.61 316.66C240.24 318.24 243.41 326.17 249.12 340.44L270.93 322.99C261.12 318.08 254.98 315.01 252.53 313.79ZM273.72 404.51C283.2 406.86 292.32 410.52 300.83 415.49C299.95 412.42 295.56 397.06 287.66 369.43L283.73 369.43C278.39 388.14 275.05 399.83 273.72 404.51ZM295.65 339.63L285.7 331.67L275.75 339.63L282.65 353.43L288.76 353.43L295.65 339.63ZM322.28 340.44C327.89 326.42 331.01 318.63 331.63 317.07C327.43 315.8 323.14 314.71 318.77 313.84C317.55 314.45 311.45 317.5 300.47 322.99L322.28 340.44ZM309.7 193.43C309.7 202.25 316.88 209.43 325.7 209.43C334.53 209.43 341.7 202.25 341.7 193.43C341.7 184.6 334.53 177.43 325.7 177.43C316.88 177.43 309.7 184.6 309.7 193.43ZM357.7 193.43C357.7 196.63 357.7 222.23 357.7 225.43C366.53 225.43 373.7 218.25 373.7 209.43C373.7 200.6 366.53 193.43 357.7 193.43ZM200.01 177.71C200.08 177.96 200.59 180.02 200.65 180.27C204.65 178.47 209.05 177.43 213.7 177.43C213.7 176.63 213.7 170.23 213.7 169.43C213.7 149.58 228.28 133.18 247.26 130.07C246.29 125.69 245.7 121.19 245.7 116.59C245.7 116.38 245.7 115.32 245.7 113.43L261.7 113.43C261.7 115.32 261.7 116.38 261.7 116.59C261.7 131.97 269.34 146.24 282.14 154.77C281.26 156.1 274.16 166.75 273.27 168.08C264.55 162.27 257.62 154.47 252.89 145.51C241.32 145.91 231.86 154.49 230.09 165.67C234.73 163.05 240 161.43 245.7 161.43C260.57 161.43 272.99 171.66 276.57 185.43C278.39 185.43 293.01 185.43 294.84 185.43C298.41 171.66 310.83 161.43 325.7 161.43C327.61 161.43 329.44 161.67 331.25 161.99C328.17 159.86 324.61 158.35 320.68 157.87C320.26 157.81 316.88 157.39 316.45 157.34C294.37 154.58 277.7 135.7 277.7 113.43C279.3 113.43 292.1 113.43 293.7 113.43C293.7 127.64 304.33 139.69 318.45 141.46C318.87 141.51 322.25 141.93 322.67 141.99C341.2 144.3 355.34 159.2 357.31 177.43C357.35 177.43 357.66 177.43 357.7 177.43C362.36 177.43 366.75 178.47 370.75 180.27C370.81 180.02 371.33 177.96 371.39 177.71C372.92 171.55 373.7 165.23 373.7 158.91C373.7 116.19 338.94 81.43 296.22 81.43C294.12 81.43 277.28 81.43 275.17 81.43C232.46 81.43 197.7 116.19 197.7 158.91C197.7 165.23 198.49 171.55 200.01 177.71ZM245.7 209.43C254.53 209.43 261.7 202.25 261.7 193.43C261.7 184.6 254.53 177.43 245.7 177.43C236.88 177.43 229.7 184.6 229.7 193.43C229.7 202.25 236.88 209.43 245.7 209.43ZM213.7 193.43C204.88 193.43 197.7 200.6 197.7 209.43C197.7 218.25 204.88 225.43 213.7 225.43C213.7 219.03 213.7 196.63 213.7 193.43ZM301.7 273.43C323.76 273.43 341.7 255.48 341.7 233.43C341.7 232.18 341.7 222.22 341.7 220.98C336.97 223.73 331.56 225.43 325.7 225.43C310.83 225.43 298.41 215.19 294.84 201.43C293.01 201.43 278.39 201.43 276.57 201.43C272.99 215.19 260.57 225.43 245.7 225.43C239.85 225.43 234.43 223.73 229.7 220.98C229.7 222.22 229.7 232.18 229.7 233.43C229.7 255.48 247.65 273.43 269.7 273.43C276.1 273.43 298.5 273.43 301.7 273.43ZM263.02 301.14L285.7 312.48L308.38 301.14C306.6 294 305.61 290.03 305.41 289.24C304.18 289.32 302.95 289.43 301.7 289.43C298.5 289.43 272.9 289.43 269.7 289.43C268.45 289.43 267.22 289.32 266 289.24C265.6 290.83 264.61 294.79 263.02 301.14ZM245.7 545.43L245.7 513.43C231.3 513.43 223.3 513.43 221.7 513.43C199.65 513.43 181.7 495.48 181.7 473.43C181.7 467.56 181.7 438.23 181.7 385.43L197.7 385.43C197.7 438.23 197.7 467.56 197.7 473.43C197.7 483.84 204.41 492.64 213.7 495.95C213.7 489.65 213.7 458.14 213.7 401.43C234.8 401.43 246.52 401.43 248.86 401.43C251.87 401.43 254.85 401.6 257.83 401.86C258.59 399.22 262.36 386 269.16 362.22L262.97 349.86L242.28 366.41C231.59 339.7 225.66 324.87 224.47 321.9C180.29 340.75 149.7 384.78 149.7 434.57C149.7 438.46 149.7 469.54 149.7 473.43C149.7 513.13 182 545.43 221.7 545.43C224.9 545.43 232.9 545.43 245.7 545.43ZM293.7 513.43C292.64 513.43 287.3 513.43 277.7 513.43C277.7 507.92 277.7 504.87 277.7 504.26C277.7 500.5 274.63 497.43 270.87 497.43C268.27 497.43 265.93 498.87 264.76 501.21C264.56 501.62 263.54 503.65 261.7 507.31L261.7 545.43C280.9 545.43 291.57 545.43 293.7 545.43C302.53 545.43 309.7 538.25 309.7 529.43C309.7 520.6 302.53 513.43 293.7 513.43ZM373.7 417.43C362.21 417.43 355.82 417.43 354.54 417.43C338.66 417.43 323.25 421.75 309.7 429.89C309.7 437.09 309.7 494.68 309.7 501.87C316.02 505.56 320.96 511.28 323.57 518.21C333.57 515.05 343.95 513.43 354.54 513.43C355.82 513.43 362.21 513.43 373.7 513.43L373.7 417.43ZM485.7 353.43L452.48 353.43L429.59 490.74L413.81 488.11L425.59 417.4C424.19 412.65 423.42 410.02 423.26 409.49C411.6 369.85 383.39 338.53 346.66 322.58C345.49 325.5 339.65 340.11 329.13 366.41L308.43 349.86L302.25 362.22C310.28 390.33 314.74 405.95 315.63 409.07C327.93 404.07 341.09 401.43 354.54 401.43C356.89 401.43 368.61 401.43 389.7 401.43L389.7 486.52C403.77 503.4 411.59 512.78 413.15 514.66C420.97 524.04 432.46 529.43 444.67 529.43C467.29 529.43 485.7 511.02 485.7 488.39C485.7 470.4 485.7 425.41 485.7 353.43ZM477.7 321.43C464.47 321.43 453.7 310.66 453.7 297.43C453.7 293.01 450.12 289.43 445.7 289.43C441.29 289.43 437.7 293.01 437.7 297.43C437.7 299.3 437.7 314.3 437.7 316.17C437.7 322.59 440.2 328.62 444.73 333.15C445.02 333.43 446.45 334.86 449.01 337.43L490.39 337.43C492.96 334.86 494.39 333.43 494.67 333.15C497.93 329.88 500.15 325.83 501.13 321.43C496.45 321.43 480.05 321.43 477.7 321.43ZM501.7 297.43C501.7 293.01 498.12 289.43 493.7 289.43C492.1 289.43 479.3 289.43 477.7 289.43C473.29 289.43 469.7 293.01 469.7 297.43C469.7 301.84 473.29 305.43 477.7 305.43C479.3 305.43 487.3 305.43 501.7 305.43C501.7 301.16 501.7 298.49 501.7 297.43Z" id="a4O3PU1yoB"></path></defs><g><g><g><use xlink:href="#a4O3PU1yoB" opacity="1" fill="#ffffff" fill-opacity="1"></use><g><use xlink:href="#a4O3PU1yoB" opacity="1" fill-opacity="0" stroke="#000000" stroke-width="1" stroke-opacity="0"></use></g></g></g></g></svg>