<?xml version="1.0" encoding="UTF-8" standalone="no"?>
<!DOCTYPE svg PUBLIC "-//W3C//DTD SVG 1.1//EN" "http://www.w3.org/Graphics/SVG/1.1/DTD/svg11.dtd">
<svg version="1.1" xmlns="http://www.w3.org/2000/svg" xmlns:xlink="http://www.w3.org/1999/xlink" preserveAspectRatio="xMidYMid meet" viewBox="0 0 640 640" width="640" height="640"><defs><path d="M503.83 237.75C503.83 190.2 503.83 163.78 503.83 158.5C503.83 71.09 424.08 0 326 0C227.92 0 148.17 71.09 148.17 158.5C148.17 163.78 148.17 190.2 148.17 237.75C134.83 237.75 127.42 237.75 125.94 237.75C89.19 237.75 59.25 264.4 59.25 297.19C59.25 324.92 59.25 546.82 59.25 574.56C59.25 607.35 89.19 634 125.94 634C165.95 634 486.05 634 526.06 634C562.81 634 592.75 607.35 592.75 574.56C592.75 546.82 592.75 324.92 592.75 297.19C592.75 264.4 562.81 237.75 526.06 237.75C523.1 237.75 515.69 237.75 503.83 237.75ZM207.45 158.5C207.45 100.22 260.61 52.83 326 52.83C391.39 52.83 444.55 100.22 444.55 158.5C444.55 163.78 444.55 190.2 444.55 237.75L207.45 237.75C207.45 195.48 207.45 169.07 207.45 158.5Z" id="b4kWiGkp4g"></path></defs><g><g><g><use xlink:href="#b4kWiGkp4g" opacity="1" fill="#ffffff" fill-opacity="1"></use><g><use xlink:href="#b4kWiGkp4g" opacity="1" fill-opacity="0" stroke="#000000" stroke-width="1" stroke-opacity="0"></use></g></g></g></g></svg>