<?xml version="1.0" encoding="UTF-8" standalone="no"?>
<!DOCTYPE svg PUBLIC "-//W3C//DTD SVG 1.1//EN" "http://www.w3.org/Graphics/SVG/1.1/DTD/svg11.dtd">
<svg version="1.1" xmlns="http://www.w3.org/2000/svg" xmlns:xlink="http://www.w3.org/1999/xlink" preserveAspectRatio="xMidYMid meet" viewBox="0 0 636 636" width="636" height="636"><defs><path d="M567.76 130.73C517.91 117.48 318.51 117.48 318.51 117.48C318.51 117.48 119.11 117.48 69.26 130.23C42.5 137.35 20.46 158.75 13.12 185.24C0 233.64 0 334 0 334C0 334 0 434.87 13.12 482.76C20.47 509.25 41.98 530.13 69.27 537.27C119.64 550.52 318.52 550.52 318.52 550.52C318.52 550.52 517.91 550.52 567.76 537.77C595.06 530.64 616.57 509.76 623.92 483.27C637.03 434.87 637.03 334.51 637.03 334.51C637.03 334.51 637.56 233.64 623.91 185.24C616.57 158.75 595.05 137.86 567.76 130.73ZM255.02 426.72L255.02 241.28L420.84 334L255.02 426.72Z" id="a4vlcwy5m5"></path></defs><g><g><g><use xlink:href="#a4vlcwy5m5" opacity="1" fill="#ffffff" fill-opacity="1"></use><g><use xlink:href="#a4vlcwy5m5" opacity="1" fill-opacity="0" stroke="#000000" stroke-width="1" stroke-opacity="0"></use></g></g></g></g></svg>